<?xml version="1.0" encoding="UTF-8" standalone="no"?>
<!-- Created with Inkscape (http://www.inkscape.org/) -->

<svg
   width="150.46913mm"
   height="100.38132mm"
   viewBox="0 0 150.46913 100.38132"
   version="1.1"
   id="svg2254"
   xml:space="preserve"
   inkscape:version="1.2.2 (732a01da63, 2022-12-09)"
   sodipodi:docname="logo.svg"
   xmlns:inkscape="http://www.inkscape.org/namespaces/inkscape"
   xmlns:sodipodi="http://sodipodi.sourceforge.net/DTD/sodipodi-0.dtd"
   xmlns="http://www.w3.org/2000/svg"
   xmlns:svg="http://www.w3.org/2000/svg"><sodipodi:namedview
     id="namedview2256"
     pagecolor="#ffffff"
     bordercolor="#000000"
     borderopacity="0.25"
     inkscape:showpageshadow="2"
     inkscape:pageopacity="0.0"
     inkscape:pagecheckerboard="0"
     inkscape:deskcolor="#d1d1d1"
     inkscape:document-units="mm"
     showgrid="true"
     inkscape:zoom="0.28333312"
     inkscape:cx="831.17709"
     inkscape:cy="817.05943"
     inkscape:window-width="1440"
     inkscape:window-height="830"
     inkscape:window-x="-6"
     inkscape:window-y="-6"
     inkscape:window-maximized="1"
     inkscape:current-layer="layer1"><inkscape:grid
       type="xygrid"
       id="grid2258"
       originx="-7.228491"
       originy="-7.4766384" /></sodipodi:namedview><defs
     id="defs2251"><rect
       x="1609.709"
       y="1502.3951"
       width="691.30139"
       height="351.88986"
       id="rect9868" /><rect
       x="1415.0465"
       y="1442.4989"
       width="474.17783"
       height="284.50671"
       id="rect9862" /><rect
       x="-2473.3484"
       y="428.07953"
       width="775.29962"
       height="627.84998"
       id="rect2421" /><rect
       x="-2387.7327"
       y="42.807953"
       width="951.28784"
       height="780.05603"
       id="rect2411" /><rect
       x="-2235.5266"
       y="199.77045"
       width="1084.4681"
       height="466.13107"
       id="rect2397" /><rect
       x="-1835.9856"
       y="261.60416"
       width="175.98827"
       height="252.09129"
       id="rect2387" /><rect
       x="-1374.611"
       y="-266.3606"
       width="561.25983"
       height="366.24582"
       id="rect2371" /><rect
       x="-1726.5875"
       y="-337.70718"
       width="532.72119"
       height="661.14508"
       id="rect2314" /></defs><g
     inkscape:label="Layer 1"
     inkscape:groupmode="layer"
     id="layer1"
     transform="translate(-7.2284909,-7.4766382)"><text
       xml:space="preserve"
       transform="scale(0.26458333)"
       id="text2312"
       style="font-size:192px;white-space:pre;shape-inside:url(#rect2314);display:inline;fill:#ff0000" /><text
       xml:space="preserve"
       style="font-size:50.8px;fill:#000000;stroke-width:0.264583"
       x="-414.03812"
       y="-56.631355"
       id="text2320"><tspan
         sodipodi:role="line"
         id="tspan2318"
         style="fill:#000000;stroke-width:0.264583"
         x="-414.03812"
         y="-56.631355" /></text><text
       xml:space="preserve"
       transform="scale(0.26458333)"
       id="text2369"
       style="font-size:192px;white-space:pre;shape-inside:url(#rect2371);display:inline;fill:#000000" /><text
       xml:space="preserve"
       style="font-size:50.8px;white-space:pre;inline-size:149.076;display:inline;fill:#000000;stroke-width:0.264583"
       x="-339.78815"
       y="-32.720337"
       id="text2377"><tspan
         x="-339.78815"
         y="-32.720337"
         id="tspan10051"><tspan
           dx="0 32.518944 40.630074 40.630081 40.630081"
           style="font-family:'Bookman Old Style';-inkscape-font-specification:'Bookman Old Style'"
           id="tspan10049">FOOD
</tspan></tspan></text><text
       xml:space="preserve"
       transform="scale(0.26458333)"
       id="text2385"
       style="font-style:normal;font-variant:normal;font-weight:normal;font-stretch:normal;font-size:192px;font-family:'Bookman Old Style';-inkscape-font-specification:'Bookman Old Style';white-space:pre;shape-inside:url(#rect2387);display:inline;fill:#000000" /><text
       xml:space="preserve"
       transform="scale(0.26458333)"
       id="text2395"
       style="font-style:normal;font-variant:normal;font-weight:normal;font-stretch:normal;font-size:192px;font-family:'Bookman Old Style';-inkscape-font-specification:'Bookman Old Style';white-space:pre;shape-inside:url(#rect2397);display:inline;fill:#000000" /><text
       xml:space="preserve"
       transform="scale(0.26458333)"
       id="text2409"
       style="font-style:normal;font-variant:normal;font-weight:normal;font-stretch:normal;font-size:192px;font-family:'Bookman Old Style';-inkscape-font-specification:'Bookman Old Style';white-space:pre;shape-inside:url(#rect2411);display:inline;fill:#000000" /><text
       xml:space="preserve"
       transform="scale(0.26458333)"
       id="text2419"
       style="font-style:normal;font-variant:normal;font-weight:normal;font-stretch:normal;font-size:192px;font-family:'Bookman Old Style';-inkscape-font-specification:'Bookman Old Style';white-space:pre;shape-inside:url(#rect2421);display:inline;fill:#000000" /><path
       style="fill:#000000;stroke-width:4.75644"
       d=""
       id="path2493"
       transform="scale(0.26458333)" /><path
       style="fill:#000000;stroke-width:0.441177"
       d=""
       id="path2505"
       transform="scale(0.26458333)" /><path
       style="fill:#000000;stroke-width:0.0103174"
       d="m 369.75489,293.5141 c -1.84943,-0.27261 -3.38091,-1.1047 -5.19477,-2.82248 -0.21246,-0.2012 -0.751,-0.74362 -0.95673,-0.96362 -0.76577,-0.81888 -1.45202,-1.67343 -2.06515,-2.57161 -0.10111,-0.14813 -0.10872,-0.1625 -0.086,-0.1625 0.0202,0 0.0383,0.0202 0.0952,0.10575 0.42804,0.64473 1.04715,1.44555 1.64509,2.12796 0.67851,0.77437 1.57412,1.66173 2.20329,2.183 1.38239,1.14532 2.8847,1.85099 4.48807,2.10817 0.0851,0.0136 0.13619,0.0249 0.11349,0.0249 -0.0227,4e-5 -0.1318,-0.0132 -0.24246,-0.0296 z"
       id="path2509" /><path
       style="fill:#000000;stroke-width:1.24784"
       d=""
       id="path2511"
       transform="scale(0.26458333)" /><path
       style="fill:#000000;stroke-width:1.24784"
       d=""
       id="path2513"
       transform="scale(0.26458333)" /><text
       x="-27.58036"
       y="236.96991"
       style="font-family:ABeeZee;fill:#000000;stroke-width:0.99411"
       font-size="32.6091px"
       id="text7751"
       transform="scale(1.024273,0.97630218)" /><text
       x="20.081594"
       y="252.31868"
       style="font-family:ABeeZee;fill:#000000;stroke-width:0.99411"
       font-size="32.6091px"
       id="text7753"
       transform="scale(1.024273,0.97630218)" /><text
       x="20.081594"
       y="252.31868"
       style="font-family:ABeeZee;fill:#000000;stroke-width:0.99411"
       font-size="32.6091px"
       id="text7755"
       transform="scale(1.024273,0.97630218)" /><text
       transform="scale(1.0695545,0.9349687)"
       x="238.01299"
       y="372.20703"
       style="font-family:ABeeZee;fill:#000000;stroke-width:0.99411"
       font-size="36.5276px"
       id="text7759" /><text
       transform="scale(1.0734897,0.9315413)"
       x="1.7807668"
       y="66.261292"
       style="font-family:ABeeZee;fill:#000000;stroke-width:0.994106"
       font-size="50.7174px"
       id="text7761">F</text><text
       x="248.02184"
       y="380.68387"
       style="font-family:ABeeZee;fill:#000000;stroke-width:0.99411"
       font-size="32.6091px"
       id="text7763"
       transform="scale(1.024273,0.97630218)" /><text
       x="1.1467509"
       y="97.10537"
       style="font-family:ABeeZee;fill:#000000;stroke-width:0.994106"
       font-size="45.2769px"
       id="text7765"
       transform="scale(1.0280416,0.97272324)">B</text><text
       x="334.45966"
       y="355.64114"
       style="font-family:ABeeZee;fill:#000000;stroke-width:0.99411"
       font-size="32.6091px"
       id="text7767"
       transform="scale(1.024273,0.97630218)" /><text
       x="121.16289"
       y="62.334351"
       style="font-family:ABeeZee;fill:#000000;stroke-width:0.994106"
       font-size="45.2769px"
       id="text7769"
       transform="scale(1.0280416,0.97272324)">D</text><text
       x="334.45966"
       y="379.87604"
       style="font-family:ABeeZee;fill:#000000;stroke-width:0.99411"
       font-size="32.6091px"
       id="text7771"
       transform="scale(1.024273,0.97630218)" /><text
       x="121.16289"
       y="95.983719"
       style="font-family:ABeeZee;fill:#000000;stroke-width:0.994106"
       font-size="45.2769px"
       id="text7773"
       transform="scale(1.0280416,0.97272324)">K</text><path
       d=""
       stroke="none"
       fill="#000000"
       fill-rule="nonzero"
       id="path7775"
       style="stroke-width:0.263025" /><path
       d=""
       stroke="none"
       fill="#000000"
       fill-rule="nonzero"
       id="path7777"
       style="stroke-width:0.263025" /><path
       d=""
       stroke="none"
       fill="#000000"
       fill-rule="nonzero"
       id="path7781"
       style="stroke-width:0.263025" /><path
       d=""
       stroke="none"
       fill="#000000"
       fill-rule="nonzero"
       id="path7783"
       style="stroke-width:0.263025" /><path
       d="m 39.487623,62.803158 c 0,-17.705239 9.20987,-32.058171 20.570806,-32.058171 11.360932,0 20.570804,14.352932 20.570804,32.058171 0,17.705232 -9.209872,32.058184 -20.570804,32.058184 -11.360936,0 -20.570806,-14.352952 -20.570806,-32.058184"
       stroke="none"
       fill="#000000"
       fill-rule="nonzero"
       id="path7785"
       style="stroke-width:0.994106" /><path
       d="m 83.049331,62.803158 c 0,-17.705239 9.209853,-32.058171 20.570779,-32.058171 11.36095,0 20.57082,14.352932 20.57082,32.058171 0,17.705232 -9.20987,32.058184 -20.57082,32.058184 -11.360926,0 -20.570779,-14.352952 -20.570779,-32.058184"
       stroke="none"
       fill="#000000"
       fill-rule="nonzero"
       id="path7787"
       style="stroke-width:0.994106" /><g
       transform="matrix(0.30634241,-0.31393297,0.30636424,0.31644279,311.85328,-13.643695)"
       id="g7833"
       style="stroke-width:1.12244"><g
         transform="matrix(0.19871138,0.19891047,-0.20253739,0.20273647,-515.55237,-502.29565)"
         id="g7831"
         style="stroke-width:1.12244"><g
           transform="matrix(0.8,0,0,0.8,486.714,140.248)"
           id="g7813"
           style="stroke-width:1.12244"><g
             transform="matrix(0.684389,0,0,0.684389,157.806,305.723)"
             id="g7791"
             style="stroke-width:1.12244"><path
               d="M 472.035,408.836 C 487.168,584.477 500,768.478 500,887.413 c 0,42.06906 -34.155,76.22305 -76.224,76.22305 -42.069,0 -76.224,-34.15399 -76.224,-76.22305 0,-118.935 12.832,-302.93595 27.966,-478.57697 v 0 z"
               stroke="none"
               fill="#ffffff"
               fill-rule="nonzero"
               id="path7789"
               style="stroke-width:1.11538" /></g><g
             transform="matrix(2.30539,-2.30539,2.30539,2.30539,-129.666,431.591)"
             id="g7795"
             style="stroke-width:1.12244"><path
               d="m 92.161,158.932 6.866,6.86701 c -23.824,28.317 -49.231,57.53301 -66.885,75.187 -6.244001,6.24499 -16.384002,6.24499 -22.628002,0 -5.09,-5.09 -6.031,-12.767 -2.823,-18.814 0.7270003,1.37199 1.668,2.66001 2.823,3.814 6.244,6.24499 16.384001,6.24499 22.628002,0 C 48.107998,210.02 70.416,184.59702 92.160995,158.932 v 0 z"
               stroke="none"
               fill="#ffffff"
               fill-rule="nonzero"
               id="path7793"
               style="stroke-width:1.11538" /></g><g
             transform="matrix(0.684389,0,0,0.684389,157.806,305.723)"
             id="g7799"
             style="stroke-width:1.12244"><path
               d="M 472.035,408.836 C 487.168,584.477 500,768.478 500,887.413 c 0,42.06906 -34.155,76.22305 -76.224,76.22305 -42.069,0 -76.224,-34.15399 -76.224,-76.22305 0,-118.935 12.832,-302.93595 27.966,-478.57697 v 0 z"
               stroke="#000000"
               stroke-width="45.025"
               fill="#ffffff"
               fill-rule="nonzero"
               id="path7797" /></g><g
             transform="matrix(0.993384,0,0,0.684389,-323.255,282.751)"
             id="g7803"
             style="stroke-width:1.12244"><path
               d="m 725.111,442.403 c 5.03304,-60.001 10.407,-119.544 15.711,-175.77898 v 0 h 70.803 c 5.304,56.23498 10.678,115.77802 15.711,175.77898 v 0 z"
               stroke="none"
               fill="#ffffff"
               fill-rule="nonzero"
               id="path7801"
               style="stroke-width:1.11538" /></g><g
             transform="matrix(2.30539,-2.30539,2.30539,2.30539,-129.666,431.591)"
             id="g7807"
             style="stroke-width:1.12244"><path
               d="m 117.322,131.911 8.261,8.261 c -7.205,9.49 -14.885,19.48599 -22.707,29.476 v 0 L 92.161,158.932 c 5.733005,-7.32299 17.573,-17.22799 25.16101,-27.02099 v 0 z"
               stroke="none"
               fill="#ffffff"
               fill-rule="nonzero"
               id="path7805"
               style="stroke-width:1.11538" /></g><g
             transform="matrix(0.993384,0,0,0.684389,-323.255,282.751)"
             id="g7811"
             style="stroke-width:1.12244"><path
               d="m 725.111,442.403 c 5.03304,-60.001 10.407,-119.544 15.711,-175.77898 v 0 h 70.803 c 5.304,56.23498 10.678,115.77802 15.711,175.77898 v 0 z"
               stroke="#000000"
               stroke-width="36.1282"
               fill="#ffffff"
               fill-rule="nonzero"
               id="path7809" /></g></g><path
           d="m 825.231,469.924 c -56.3,-9.562 -100.304,-58.794 -106.102,-120.015 -0.424,-1.746 -0.648,-3.563 -0.648,-5.429 0,-1.50298 0.016,-3.056 0.046,-4.64998 -0.03,-1.22902 -0.046,-2.45902 -0.046,-3.693 v 0 h 0.141 c 2.039,-64.55099 25.586,-194.529 25.586,-194.529 0,0 18.623,102.79899 24.18,170.95601 0.74,13.20599 12.315,23.556 26.343,23.556 10e-4,0.017 10e-4,0.017 0.002,0.017 14.03803,0 25.62097,-10.35699 26.362,-23.57199 4.97197,-61.186 20.48797,-150.287 23.61102,-167.876 v 0 -3.081 c 0,0 0.095,0.52901 0.27505,1.53501 0.18,-1.006 0.275,-1.53501 0.275,-1.53501 v 0 3.081 c 3.123,17.589 18.639,106.69 23.611,167.876 0.74105,13.215 12.324,23.57199 26.362,23.57199 10e-4,0 10e-4,0 0.002,-0.017 14.02802,0 25.60303,-10.35001 26.34302,-23.556 5.557,-68.157 24.17999,-170.956 24.17999,-170.956 0,0 23.547,129.978 25.586,194.52899 v 0 h 0.14099 c 0,1.23401 -0.015,2.46398 -0.046,3.693 0.03,1.59398 0.046,3.147 0.046,4.64998 0,1.866 -0.224,3.68302 -0.64804,5.429 -5.79794,61.221 -49.802,110.453 -106.10196,120.015 v 0 42.50404 h -39.5 z"
           stroke="none"
           fill="#ffffff"
           fill-rule="nonzero"
           id="path7815"
           style="stroke-width:1.11538" /><g
           transform="matrix(1.84431,-1.84431,1.84431,1.84431,382.982,485.521)"
           id="g7819"
           style="stroke-width:1.12244"><path
             d="m 226.513,73.111 c 10.892,-7.953 19.293,-13.777 19.293,-13.777 0,0 -28.854,41.621 -45.801,59.674 v 0 l 0.038,0.038 c -0.334,0.335 -0.672,0.664 -1.013,0.989 -0.424,0.44 -0.841,0.86499 -1.248,1.273 -0.506,0.506 -1.06,0.938 -1.648,1.296 -18.169,15.025 -43.446,16.443 -61.30099,3.772 v 0 l -11.523,11.523 -10.709,-10.709 3.52899,-3.528 2.28501,6.132 16.418,-16.41799 c 17.85499,12.671 43.132,11.253 61.30099,-3.77201 0.588,-0.358 1.142,-0.79 1.648,-1.29599 0.407,-0.408 0.824,-0.833 1.248,-1.27301 0.341,-0.32499 0.679,-0.654 1.013,-0.989 v 0 l -0.038,-0.038 c 7.659,-8.157994 17.748,-21.128995 26.508,-32.89699 v 0 z"
             stroke="none"
             fill="#ffffff"
             fill-rule="nonzero"
             id="path7817"
             style="stroke-width:1.11538" /></g><g
           transform="matrix(1.84431,-1.84431,1.84431,1.84431,384.826,505.808)"
           id="g7823"
           style="stroke-width:1.12244"><path
             d="M 198.689,46.29 C 207.636,39.747 215,34.574 217.576,32.774 v 0 l 0.836,-0.835 c 0,0 -0.118,0.168998 -0.342,0.491 0.32201,-0.224 0.491,-0.342 0.491,-0.342 v 0 l -0.835,0.836 c -3.911,5.599 -23.76,33.818004 -38.985,51.763 -3.202,-3.805004 -3.311,-9.287006 -0.12601,-12.85 6.373,-7.501 13.57001,-16.825003 20.07401,-25.547003 v 0 z"
             stroke="none"
             fill="#ffffff"
             fill-rule="nonzero"
             id="path7821"
             style="stroke-width:1.11538" /></g><g
           transform="matrix(1.84431,-1.84431,1.84431,1.84431,384.826,502.12)"
           id="g7827"
           style="stroke-width:1.12244"><path
             d="m 171.873,18.471 c 10.891,-7.951999 19.293,-13.7769998 19.293,-13.7769998 0,0 -22.702,32.7469998 -39.661,52.7479998 -3.20399,-3.802 -3.31399,-9.284 -0.13,-12.846 6.511,-7.668 13.884,-17.24 20.498,-26.125 z"
             stroke="none"
             fill="#ffffff"
             fill-rule="nonzero"
             id="path7825"
             style="stroke-width:1.11538" /></g><path
           d="m 825.231,469.924 c -56.3,-9.562 -100.304,-58.794 -106.102,-120.015 -0.424,-1.746 -0.648,-3.563 -0.648,-5.429 0,-1.50298 0.016,-3.056 0.046,-4.64998 -0.03,-1.22902 -0.046,-2.45902 -0.046,-3.693 v 0 h 0.141 c 2.039,-64.55099 25.586,-194.529 25.586,-194.529 0,0 18.623,102.79899 24.18,170.95601 0.74,13.20599 12.315,23.556 26.343,23.556 10e-4,0.017 10e-4,0.017 0.002,0.017 14.03803,0 25.62097,-10.35699 26.362,-23.57199 4.97197,-61.186 20.48797,-150.287 23.61102,-167.876 v 0 -3.081 c 0,0 0.095,0.52901 0.27505,1.53501 0.18,-1.006 0.275,-1.53501 0.275,-1.53501 v 0 3.081 c 3.123,17.589 18.639,106.69 23.611,167.876 0.74105,13.215 12.324,23.57199 26.362,23.57199 10e-4,0 10e-4,0 0.002,-0.017 14.02802,0 25.60303,-10.35001 26.34302,-23.556 5.557,-68.157 24.17999,-170.956 24.17999,-170.956 0,0 23.547,129.978 25.586,194.52899 v 0 h 0.14099 c 0,1.23401 -0.015,2.46398 -0.046,3.693 0.03,1.59398 0.046,3.147 0.046,4.64998 0,1.866 -0.224,3.68302 -0.64804,5.429 -5.79794,61.221 -49.802,110.453 -106.10196,120.015 v 0 42.50404 h -39.5 z"
           stroke="#000000"
           stroke-width="24.6482"
           fill="#ffffff"
           fill-rule="nonzero"
           id="path7829" /></g></g><g
       transform="matrix(-0.25441353,-0.00304956,0.00351545,-0.22069716,117.68202,108.73378)"
       id="g7845"
       style="stroke-width:1.12244"><g
         id="g7843"
         style="stroke-width:1.12244"><path
           d="m 262.956,320.284 c -5.663,-4.974 -9.15401,-8.198 -9.252,-11.329 v 0 L 258.839,27.938 C 259,20.523 256.233,13.521 251.046,8.22 245.859,2.919 238.917,0 231.5,0 c -7.41699,0 -14.358,2.919 -19.544,8.221 -5.187,5.300999 -7.95501,12.303 -7.793,19.691998 v 0 L 209.29799,308.957 c -0.099,3.13 -3.591,6.354 -9.252,11.327 -10.011,8.794 -23.72101,20.838 -23.72101,45.825 0,29.194 4.28999,52.341 12.74899,68.797 9.448,18.38 24.11901,28.094 42.426,28.094 18.30701,0 32.979,-9.715 42.427,-28.095 8.45903,-16.456 12.74899,-39.603 12.74899,-68.797 0,-24.986 -13.70999,-37.03 -23.72,-45.824 v 0 z m -2.369,107.763 C 253.685,441.474 244.171,448 231.5,448 c -12.671,0 -22.185,-6.527 -29.086,-19.953 -7.255,-14.113 -11.089,-35.531 -11.089,-61.939 0,-18.198 9.466,-26.514 18.61999,-34.555 6.99899,-6.147 14.23501,-12.504 14.35401,-22.50298 0.001,-0.076 0,-0.151 -0.001,-0.22699 v 0 L 219.159,27.612 c -0.073,-3.347 1.177,-6.508 3.518,-8.901001 2.341,-2.393 5.47501,-3.711001 8.823,-3.711001 3.348,0 6.482,1.318001 8.823,3.711001 2.342,2.392999 3.591,5.554001 3.518,8.927 v 0 L 238.703,308.823 c -0.001,0.076 -0.002,0.151 -0.001,0.227 0.119,9.99898 7.35499,16.35598 14.354,22.50298 9.154,8.04199 18.62,16.35699 18.62,34.55499 0,26.409 -3.83402,47.827 -11.089,61.939 z"
           stroke="none"
           fill="#000000"
           fill-rule="nonzero"
           id="path7835"
           style="stroke-width:1.11538" /><path
           d="m 238.85,27.931 c 0,-1.98 -0.8,-3.91 -2.19,-5.31 -1.39999,-1.39 -3.33,-2.19 -5.31,-2.19 -1.97,0 -3.91,0.799999 -5.3,2.19 -1.39999,1.4 -2.2,3.33 -2.2,5.31 0,1.97 0.80001,3.9 2.2,5.3 1.39,1.4 3.33,2.2 5.3,2.2 1.98,0 3.91001,-0.8 5.31,-2.2 1.39,-1.4 2.19,-3.33 2.19,-5.3 z"
           stroke="none"
           fill="#000000"
           fill-rule="nonzero"
           id="path7837"
           style="stroke-width:1.11538" /><path
           d="m 247.613,376.52 c -0.16499,3.656 -1.89599,36.006 -11.89999,46.01198 -2.929,2.92899 -2.92799,7.67802 0.001,10.60599 1.464,1.46399 3.383,2.19601 5.30299,2.19601 1.92,0 3.83901,-0.73198 5.304,-2.19698 13.00399,-13.00602 15.71499,-43.455 16.27701,-55.942 0.18701,-4.138 -3.017,-7.644 -7.155,-7.82998 -4.14999,-0.19 -7.645,3.017 -7.83,7.155 v 0 z"
           stroke="none"
           fill="#000000"
           fill-rule="nonzero"
           id="path7839"
           style="stroke-width:1.11538" /><path
           d="m 236.639,338.877 c -2.733,3.112 -2.427,7.85103 0.685,10.584 2.879,2.529 5.40401,4.789 7.148,6.835 1.484,1.73998 3.59,2.634 5.711,2.634 1.72099,0 3.451,-0.589 4.862,-1.792 3.152,-2.688 3.529,-7.421 0.842,-10.573 -2.394,-2.807 -5.33901,-5.453 -8.663,-8.37298 -3.112,-2.732 -7.85,-2.42702 -10.58501,0.68498 v 0 z"
           stroke="none"
           fill="#000000"
           fill-rule="nonzero"
           id="path7841"
           style="stroke-width:1.11538" /></g></g><path
       d="m 57.172915,103.79529 c -1.114274,-0.70018 -1.116448,-1.36456 -0.09853,-29.766815 1.422395,-39.688576 1.579941,-36.015374 -1.664182,-38.8033 -4.055961,-3.485606 -5.189997,-5.388723 -5.18731,-8.705383 0.0056,-7.070946 2.580488,-14.011256 5.907539,-15.923655 2.087677,-1.1999904 6.068432,-1.2411091 8.123579,-0.08383 2.567384,1.445638 4.600206,5.753748 5.405455,11.455548 0.946146,6.699125 0.360711,8.38322 -4.392972,12.637582 v 0 l -3.589113,3.212066 -0.03915,32.697078 c -0.02159,17.983402 -0.224245,32.134289 -0.45049,31.446419 -0.575586,-1.75011 -2.13796,-2.515517 -3.358187,-1.64521 -1.938364,1.3825 -0.344364,3.99537 1.999809,3.2781 0.513634,-0.15716 0.676208,-0.0288 0.418072,0.33022 -0.566462,0.78767 -1.691117,0.74056 -3.074534,-0.12879 v 0 z m 2.017064,-71.476991 c 0.27941,-1.696241 -2.129262,-3.811328 -4.113812,-3.612384 -2.103797,0.210904 -2.3814,2.18651 -0.543467,3.867772 1.801492,1.647964 4.366932,1.507272 4.657288,-0.255388 z m -2.452571,-10.21803 c 0.441346,-2.287762 1.332663,-4.933342 1.980734,-5.87909 1.478132,-2.157135 1.498608,-3.555964 0.06174,-4.216802 -2.602814,-1.197101 -5.782171,3.590763 -6.544026,9.854788 -0.472688,3.886512 -0.07358,4.776857 2.046244,4.565477 1.567646,-0.156309 1.694237,-0.37927 2.455298,-4.324373 z"
       stroke="none"
       fill="#ffffff"
       fill-rule="nonzero"
       id="path7847"
       style="stroke-width:0.994106" /><text
       xml:space="preserve"
       transform="scale(0.26458333)"
       id="text9860"
       style="font-style:normal;font-variant:normal;font-weight:normal;font-stretch:normal;font-size:192px;font-family:'Bookman Old Style';-inkscape-font-specification:'Bookman Old Style';white-space:pre;shape-inside:url(#rect9862);display:inline;fill:#ffffff;fill-opacity:1" /><text
       xml:space="preserve"
       transform="scale(0.26458333)"
       id="text9866"
       style="font-style:normal;font-variant:normal;font-weight:normal;font-stretch:normal;font-size:192px;font-family:'Bookman Old Style';-inkscape-font-specification:'Bookman Old Style';white-space:pre;shape-inside:url(#rect9868);display:inline;fill:#ffffff;fill-opacity:1" /></g></svg>
